<svg xmlns="http://www.w3.org/2000/svg" width="100" height="100"><path fill="#FFE359" d="M36.5 93.8c5.9-19.3-1.2-17.9-11-25.4-5.4-4.2-10.3-5.6-19-12.5 11 0 15 .4 21.9 1.3 10.9 1.5 12.4.3 13.5-10.6.6-6.7 1.2-13.4 1.7-20.1.4-6.1.7-12.3 1.1-20.8 12.8 12.3 22.7 38 25.8 39 2 .8 13.2-3.5 23.8-7.7-8.6 16.3-6.3 13.9-10.7 19.6C73.1 70.2 71.7 68.2 76 73.3c1.9 2.2 5.3 5.9 12.8 15.4-10.2-3.3-14.9-4.7-27.6-11-9.9 8.9-24.9 16.7-24.7 16.1z"/><path fill="#FFD300" d="M63.1 88.9c-.7-3.7-1.9-7.8-3.7-12.4-1.1-2.8-2.4-5.3-3.6-7.6 1.6 2 3.3 4.2 4.8 6.8 2.9 4.7 4.9 9.1 6.2 12.9-.5-.1-1.1-.1-1.9 0-.7 0-1.3.2-1.8.3z"/></svg>